[img]http://www.khaolaknews.com/wp-content/uploads/2011/03/f1.jpg[/img]
[img]http://pan.fotovista.com/pixmania/grafx/multipays/guide_achat/ga22/ga22_img_box6_bloc2.jpg[/img]

Formula One 2011 Season

Turkey Grand Prix Qualifying in High Definition

Race 4: Turkish Grand Prix, Istanbul Park Curcuit

Record Source: BBC One HD
Original Format: MPEG TS Stream
Date: Sunday 08th May 2011
Time: 12:10 to 15:25

Jake Humphrey, Martin Brundle, David Coulthard & Eddie Jordan present the F1 coverage to the 4th Race
meeting of the 2011 Formula One season, The Turkish Grand Prix, from the Instanbul Park Curcuit.

Video: The Video is encoded using AVC/H.264 into a mkv container
Audio: The audio is now Dolby Digital. Support for AC3 codec (2 channels as Live broadcasts are not 5.1)

For ease, the Race has been split into 2 seperate files. One is the Race only, 
and the other is the 1 hr pre race build up. You can download both or just which you need.!

Ive tested these recoded files myself on a LCD 50" Full HD LG TV, and the quality is excellent.

I hope you all enjoy the Formula 1 coverage in HD, and DONT complain about the increased file sizes! 
If you all seed for as long as you can, you will all get a fast download!

I hope you all enjoy the Formula 1 coverage in HD....


Complete name                    : F1 2011 Turkey Race Build Up.HD.1080.H264.AC3.DD.mkv
Format                           : Matroska
File size                        : 1.00 GiB
Duration                         : 45mn 41s
Overall bit rate                 : 3 134 Kbps
Writing application              : HandBrake 0.9.5
Writing library                  : libmkv 0.6.4.1

Video
ID                               : 1
Format                           : AVC
Format/Info                      : Advanced Video Codec
Format profile                   : Main@L4.0
Format settings, CABAC           : Yes
Format settings, ReFrames        : 4 frames
Codec ID                         : V_MPEG4/ISO/AVC
Duration                         : 45mn 41s
Bit rate                         : 3 000 Kbps
Width                            : 1 440 pixels
Height                           : 1 080 pixels
Display aspect ratio             : 16:9
Frame rate mode                  : Variable
Frame rate                       : 25.000 fps
Color space                      : YUV
Chroma subsampling               : 4:2:0
Bit depth                        : 8 bits
Scan type                        : Progressive
Bits/(Pixel*Frame)               : 0.077
Stream size                      : 962 MiB (94%)
Writing library                  : x264 core 112
Language                         : English
Color primaries                  : BT.709-5, BT.1361, IEC 61966-2-4, SMPTE RP177
Transfer characteristics         : BT.709-5, BT.1361
Matrix coefficients              : BT.709-5, BT.1361, IEC 61966-2-4 709, SMPTE RP177

Audio
ID                               : 2
Format                           : AC-3
Format/Info                      : Audio Coding 3
Mode extension                   : CM (complete main)
Codec ID                         : A_AC3
Duration                         : 45mn 41s
Bit rate mode                    : Constant
Bit rate                         : 128 Kbps
Channel(s)                       : 2 channels
Channel positions                : Front: L R
Sampling rate                    : 48.0 KHz
Bit depth                        : 16 bits
Compression mode                 : Lossy
Stream size                      : 41.8 MiB (4%)
Language                         : English



Complete name                    : F1 2011 Turkey Race HD.1080.H264.AC3.DD.mkv
Format                           : Matroska
File size                        : 3.26 GiB
Duration                         : 2h 29mn
Overall bit rate                 : 3 133 Kbps
Writing application              : HandBrake 0.9.5
Writing library                  : libmkv 0.6.4.1

Video
ID                               : 1
Format                           : AVC
Format/Info                      : Advanced Video Codec
Format profile                   : Main@L4.0
Format settings, CABAC           : Yes
Format settings, ReFrames        : 4 frames
Codec ID                         : V_MPEG4/ISO/AVC
Duration                         : 2h 29mn
Bit rate                         : 3 000 Kbps
Width                            : 1 418 pixels
Height                           : 1 078 pixels
Display aspect ratio             : 16:9
Original display aspect ratio    : 16:9
Frame rate mode                  : Variable
Frame rate                       : 25.000 fps
Color space                      : YUV
Chroma subsampling               : 4:2:0
Bit depth                        : 8 bits
Scan type                        : Progressive
Bits/(Pixel*Frame)               : 0.079
Stream size                      : 3.06 GiB (94%)
Writing library                  : x264 core 112
Encoding settings                : cabac=1 / ref=2 / deblock=1:0:0 / 
Language                         : English
Color primaries                  : BT.709-5, BT.1361, IEC 61966-2-4, SMPTE RP177
Transfer characteristics         : BT.709-5, BT.1361
Matrix coefficients              : BT.709-5, BT.1361, IEC 61966-2-4 709, SMPTE P177
Audio
ID                               : 2
Format                           : AC-3
Format/Info                      : Audio Coding 3
Mode extension                   : CM (complete main)
Codec ID                         : A_AC3
Duration                         : 2h 29mn
Bit rate mode                    : Constant
Bit rate                         : 128 Kbps
Channel(s)                       : 2 channels
Channel positions                : Front: L R
Sampling rate                    : 48.0 KHz
Bit depth                        : 16 bits
Compression mode                 : Lossy
Stream size                      : 136 MiB (4%)
Language                         : English


Enjoy, The Blacknight
